<svg width="20" height="20" fill="none" xmlns="http://www.w3.org/2000/svg"><path fill-rule="evenodd" clip-rule="evenodd" d="M13.856 4.403c-.24-.201-.275-.57-.054-.79l.49-.492a1 1 0 0 0-1.413-1.414l-1.065 1.064c-.246.247-.603.341-.948.291a6.051 6.051 0 0 0-1.732 0c-.345.05-.702-.044-.948-.29L7.12 1.707a1 1 0 1 0-1.414 1.414l.49.491c.222.222.187.59-.053.791A6.023 6.023 0 0 0 4.616 6.35c-.187.38-.558.651-.982.651H2a1 1 0 0 0 0 2h1a1 1 0 0 1 1 1v2a1 1 0 0 1-1 1H2a1 1 0 1 0 0 2h1.634c.424 0 .795.271.982.651a6.02 6.02 0 0 0 3.245 2.957c.578.22 1.139-.254 1.139-.873V15a1 1 0 1 1 2 0v2.735c0 .619.56 1.093 1.139.873a6.02 6.02 0 0 0 3.245-2.957c.187-.38.558-.651.982-.651H18a1 1 0 1 0 0-2h-1a1 1 0 0 1-1-1v-2a1 1 0 0 1 1-1h1a1 1 0 1 0 0-2h-1.634c-.424 0-.794-.271-.982-.651a6.024 6.024 0 0 0-1.528-1.946Z" fill="#666"></path></svg>