<svg width="20" height="20" fill="none" xmlns="http://www.w3.org/2000/svg"><path d="m16.123 7.457 1.157.46c.79.313.972 1.362.336 1.93l-.929.831a1.16 1.16 0 0 0-.245 1.411l.593 1.102c.406.755-.12 1.677-.967 1.699l-1.242.03a1.138 1.138 0 0 0-1.084.921l-.246 1.235c-.168.842-1.155 1.206-1.818.67l-.971-.784c-.414-.334-1-.334-1.414 0l-.973.786c-.663.536-1.65.172-1.818-.67l-.247-1.234a1.138 1.138 0 0 0-1.083-.921l-1.241-.031c-.848-.021-1.374-.944-.968-1.698l.595-1.105a1.16 1.16 0 0 0-.245-1.411l-.929-.83c-.636-.569-.453-1.618.336-1.931l1.157-.46c.492-.196.786-.71.707-1.241l-.186-1.243c-.127-.85.679-1.535 1.483-1.26l1.176.4a1.127 1.127 0 0 0 1.33-.49l.645-1.073a1.126 1.126 0 0 1 1.936 0l.646 1.073c.275.458.827.661 1.329.49l1.177-.4c.804-.275 1.609.41 1.482 1.26l-.186 1.243c-.079.53.215 1.045.707 1.241Z" fill="#666"></path></svg>