<svg width="20" height="20" fill="none" xmlns="http://www.w3.org/2000/svg"><path fill-rule="evenodd" clip-rule="evenodd" d="m17.848 11.561-1.962-.388a6.043 6.043 0 0 0 0-2.346l1.962-.388a8.039 8.039 0 0 1 0 3.122zm-1.195-6.006L14.99 6.668a6.043 6.043 0 0 0-1.659-1.659l1.113-1.662a8.043 8.043 0 0 1 2.207 2.208zM11.56 2.152l-.388 1.962a6.04 6.04 0 0 0-2.346 0l-.388-1.962a8.04 8.04 0 0 1 3.122 0zM5.555 3.347 6.668 5.01a6.044 6.044 0 0 0-1.659 1.659L3.347 5.555a8.044 8.044 0 0 1 2.208-2.208zM2.152 8.44a8.04 8.04 0 0 0 0 3.122l1.962-.388a6.04 6.04 0 0 1 0-2.346l-1.962-.388zm1.195 6.006 1.662-1.113a6.043 6.043 0 0 0 1.659 1.659l-1.113 1.662a8.043 8.043 0 0 1-2.208-2.208zm5.092 3.403.388-1.962a6.043 6.043 0 0 0 2.346 0l.388 1.962a8.039 8.039 0 0 1-3.122 0zm6.006-1.195-1.113-1.662a6.042 6.042 0 0 0 1.659-1.659l1.662 1.113a8.042 8.042 0 0 1-2.208 2.207z" fill="#666"></path></svg>